<svg xmlns="http://www.w3.org/2000/svg" width="900" height="268" viewBox="0 0 900 268" role="img" aria-label="Five scouts dispatched concurrently in the reference run; 131 minutes of total agent work completed in 39 minutes of wall clock, set by the longest-running scout.">
      <defs>
        <marker id="d1" viewBox="0 0 10 10" refX="9" refY="5" markerWidth="7" markerHeight="7" orient="auto-start-reverse">
          <path d="M0,1 L9,5 L0,9 z" fill="#6B7280"/>
        </marker>
      </defs>
      <g stroke="#6B7280" opacity=".15">
        <line x1="230" y1="24" x2="230" y2="218"/>
        <line x1="390" y1="24" x2="390" y2="218"/>
        <line x1="550" y1="24" x2="550" y2="218"/>
        <line x1="710" y1="24" x2="710" y2="218"/>
        <line x1="870" y1="24" x2="870" y2="218"/>
      </g>
      <g font-family="ui-monospace, SFMono-Regular, Menlo, monospace" font-size="10.5" fill="#6B7280" opacity=".55" text-anchor="middle">
        <text x="230" y="236">0</text><text x="390" y="236">10</text><text x="550" y="236">20</text>
        <text x="710" y="236">30</text><text x="870" y="236">40</text>
        <text x="550" y="256" opacity=".85">minutes from dispatch</text>
      </g>
      <g font-family="ui-sans-serif, -apple-system, sans-serif" font-size="12" fill="#6B7280">
        <text x="214" y="44" text-anchor="end">Structures / tooling</text>
        <text x="214" y="80" text-anchor="end">Prior art</text>
        <text x="214" y="116" text-anchor="end">Target and data</text>
        <text x="214" y="152" text-anchor="end">Sponsor integration</text>
        <text x="214" y="188" text-anchor="end">Software stack</text>
      </g>
      <g fill="#6B7280" opacity=".26">
        <rect x="230" y="32" width="163" height="16" rx="4"/>
        <rect x="230" y="68" width="272" height="16" rx="4"/>
        <rect x="230" y="104" width="357" height="16" rx="4"/>
        <rect x="230" y="140" width="365" height="16" rx="4"/>
      </g>
      <rect x="230" y="176" width="627" height="16" rx="4" fill="#7C89E8"/>
      <g font-family="ui-monospace, SFMono-Regular, Menlo, monospace" font-size="10.5" fill="#6B7280" opacity=".7">
        <text x="401" y="44">10.2</text><text x="510" y="80">17.0</text>
        <text x="595" y="116">22.3</text><text x="603" y="152">22.8</text>
      </g>
      <text x="846" y="189" font-family="ui-monospace, SFMono-Regular, Menlo, monospace" font-size="10.5" fill="#FFFFFF" text-anchor="end">39.2 · critical path</text>
      <line x1="857" y1="24" x2="857" y2="218" stroke="#7C89E8" stroke-width="1.4" stroke-dasharray="4 3"/>
      <text x="853" y="20" font-family="ui-sans-serif, -apple-system, sans-serif" font-size="11" fill="#7C89E8" text-anchor="end">wall clock 39 min</text>
      <line x1="230" y1="218" x2="857" y2="218" stroke="#6B7280" opacity=".35" marker-end="url(#d1)"/>
    </svg>
